<svg width="26" height="18" viewBox="0 0 26 18" fill="none" xmlns="http://www.w3.org/2000/svg">
<path d="M1.10926 7.52792L10.8662 1.25562C11.1305 1.08569 11.4358 0.990085 11.7499 0.978842C12.0639 0.9676 12.3752 1.04114 12.6511 1.19173C12.9269 1.34233 13.1571 1.56442 13.3175 1.83469C13.4779 2.10496 13.5625 2.41343 13.5625 2.7277V7.39723L23.1162 1.25562C23.3805 1.08569 23.6858 0.990085 23.9999 0.978842C24.3139 0.9676 24.6252 1.04114 24.9011 1.19173C25.1769 1.34233 25.4071 1.56442 25.5675 1.83469C25.7279 2.10496 25.8125 2.41343 25.8125 2.7277V15.2723C25.8126 15.5866 25.7279 15.8951 25.5676 16.1654C25.4072 16.4357 25.177 16.6578 24.9011 16.8084C24.6253 16.959 24.314 17.0325 23.9999 17.0213C23.6858 17.01 23.3805 16.9144 23.1162 16.7444L13.5625 10.6028V15.2723C13.5626 15.5866 13.4779 15.8951 13.3176 16.1654C13.1572 16.4357 12.927 16.6578 12.6511 16.8084C12.3753 16.959 12.064 17.0325 11.7499 17.0213C11.4358 17.01 11.1305 16.9144 10.8662 16.7444L1.10926 10.4721C0.862766 10.3136 0.660014 10.0958 0.5196 9.83857C0.379185 9.58137 0.305603 9.29303 0.305603 8.99999C0.305603 8.70696 0.379185 8.41861 0.5196 8.16141C0.660014 7.90421 0.862766 7.68638 1.10926 7.52792Z" fill="#D1C5EC"/>
</svg>
