<svg width="26" height="18" viewBox="0 0 26 18" fill="none" xmlns="http://www.w3.org/2000/svg">
<path d="M25.6944 9C25.6951 9.29316 25.6218 9.58174 25.4813 9.83906C25.3408 10.0964 25.1377 10.3141 24.8908 10.4721L15.1339 16.7444C14.8695 16.9143 14.5642 17.0099 14.2502 17.0212C13.9361 17.0324 13.6248 16.9589 13.349 16.8083C13.0731 16.6577 12.8429 16.4356 12.6825 16.1653C12.5222 15.895 12.4375 15.5866 12.4375 15.2723V10.6028L2.88385 16.7444C2.61948 16.9143 2.31424 17.0099 2.00017 17.0211C1.6861 17.0324 1.37479 16.9589 1.09895 16.8083C0.823114 16.6577 0.592916 16.4356 0.432537 16.1653C0.272157 15.895 0.187515 15.5866 0.1875 15.2723V2.7277C0.187515 2.41343 0.272157 2.10496 0.432536 1.83469C0.592915 1.56442 0.823112 1.34233 1.09895 1.19173C1.37479 1.04114 1.68609 0.9676 2.00016 0.978842C2.31424 0.990084 2.61948 1.08569 2.88385 1.25562L12.4375 7.39724V2.7277C12.4375 2.41343 12.5222 2.10496 12.6825 1.83469C12.8429 1.56442 13.0731 1.34233 13.349 1.19173C13.6248 1.04114 13.9361 0.9676 14.2502 0.978842C14.5642 0.990084 14.8695 1.08569 15.1339 1.25562L24.8908 7.52792C25.1377 7.6859 25.3408 7.90362 25.4813 8.16094C25.6218 8.41825 25.6951 8.70684 25.6944 9Z" fill="#501BC2"/>
</svg>
