<svg width="302" height="52" viewBox="0 0 302 52" fill="none" xmlns="http://www.w3.org/2000/svg">
<path d="M1 25.7273L4.05555 31.1479C5.86111 34.3254 7.80555 34.1385 8.63888 30.7118L10.4444 22.1136C12.1111 14.2009 14.1944 14.2632 15.1667 22.2383L16.6944 36.0077C18.3611 50.7117 20.4444 50.6494 21.4166 35.9454L22.9444 12.0825C23.9166 -2.68378 26 -2.68378 27.6666 12.0202L29.4722 28.5311C30.1666 35.0108 32.25 35.1354 34.1944 28.7803L35.1666 25.6027C36.2777 21.9267 38.3611 21.8644 39.75 25.4781L41.2777 29.4657C42.3888 32.2071 44.3333 32.2694 45.7222 29.5903L47.8055 25.4781C48.6388 23.7336 50.5833 23.5467 51.9722 25.1043L53.7777 27.0981C54.8888 28.2819 56.5555 28.2819 57.6666 27.0981L58.4999 26.2258C60.4444 24.1074 62.3888 24.4812 62.8055 27.0358L64.4722 36.4438C65.861 44.7304 67.9444 44.7304 69.1944 36.3815L71.5555 19.9953C72.5277 13.204 74.611 13.1417 76.2777 19.8707L76.5555 21.1168C78.2221 27.908 80.3055 27.8457 81.2777 20.9922L82.8055 9.90185C84.4721 -1.7492 86.5555 -1.7492 87.5277 9.96416L90.3055 42.7366C91.2777 53.7023 93.361 53.7646 95.0277 42.8612L97.3888 27.0981C97.8055 24.4812 99.7499 24.0451 101.694 26.2258L102.25 26.7865C103.5 28.0949 105.167 28.0326 106.278 26.5996L106.833 25.9143C108.222 23.9205 110.167 24.0451 111.139 26.2258L112.667 29.7772C114.333 33.7024 116.417 33.5778 117.25 29.4657L119.889 16.9423C121 11.771 123.083 11.771 124.611 16.8177L126.278 23.9205C127.111 26.8488 129.055 26.9734 130.722 24.2943L131.833 22.4252C132.944 20.4937 134.889 20.4937 136.139 22.4252L138.5 26.2881C139.472 27.8457 141.278 27.9703 142.528 26.5996L143.5 25.5404C145.167 23.7336 146.972 24.0451 147.667 26.1635L148.778 29.528C150.167 33.6401 152.25 33.5778 153.361 29.4657L155.583 21.2414C156.555 17.6277 158.639 17.5031 160.167 21.0545L162.111 25.7897C162.944 27.7211 164.75 27.908 166.278 26.2881L166.833 25.6027C168.5 23.8582 170.305 24.1074 171 26.2258L173.222 32.6432C174.75 36.9423 176.833 36.88 177.805 32.5186L179.472 25.665C180.861 19.6214 183.083 19.6838 184.194 25.7273L185.861 34.3878C187.25 41.989 189.333 41.989 190.583 34.3255L191.833 26.0389C193.361 16.0078 195.444 16.0701 196.555 26.1012L197.25 32.0825C198.639 44.7304 200.722 44.7304 201.972 32.0825L203.361 18.1884C204.75 4.419 206.833 4.48131 208.083 18.1884L209.611 34.8862C211 50.2756 213.083 50.2756 214.333 34.8862L216.139 13.2663C217.389 -1.99842 219.472 -2.06072 220.861 13.2663L222.389 29.5903C222.944 35.6339 225.028 35.7585 227.111 29.9641L228.778 24.9797C229.889 21.7398 231.972 21.6775 233.361 24.8551L235.028 28.2819C236.278 31.1479 238.222 31.1479 239.472 28.2819L240.583 25.665C241.416 23.7959 243.361 23.5467 244.75 25.1666L246.416 26.9734C247.528 28.1572 249.194 28.1572 250.305 26.9734L251.278 25.9143C253.083 23.8582 255.028 24.232 255.583 26.7242L257.805 37.0669C259.472 44.9796 261.555 44.9173 262.528 36.9423L265.028 14.2009C266.139 4.41901 268.222 4.419 269.75 14.1386L271.694 27.0358C272.528 32.4563 274.611 32.5809 276.416 27.285L277.805 23.1728C278.778 20.3068 280.722 20.1822 282.25 22.8613L283.778 25.665C284.889 27.5342 286.694 27.5965 288.083 25.852C289.472 23.8582 291.416 23.9828 292.389 26.1635L294.333 30.6494C295.722 34.0762 297.805 34.0139 298.916 30.4625L300.722 24.6059" stroke="#393F65" stroke-width="2" stroke-miterlimit="10" stroke-linecap="round" stroke-linejoin="round"/>
</svg>
